# xmcd
#
# Track frame offsets: 
#        150
#        16995
#        34432
#        55607
#        76700
#        87340
#        105320
#        123167
#        143520
#        160992
#        171517
#        187502
#        204567
#        216480
#        235135
#        254567
#        274100
#        292350
#
# Disc length: 4208 seconds
#
# Revision: 2
# Processed by: cddbd v1.4PL0 Copyright (c) Steve Scherf et al.
# Submitted via: ExactAudioCopy v0.95a3
#
DISCID=fc106e12
DTITLE=Various Artist - Live From The Slippery Noodle Inn Volume 1
DYEAR=1993
DGENRE=Blues
TTITLE0=Yank Rachell - Yank Rachell's Blues
TTITLE1=Red Beans and Rice - Just U wait NC
TTITLE2=Bangkok Rooster - My Number Is Up
TTITLE3=Studebaker John and The Hawks - Shake
TTITLE4=David Morgan - Last Steam Engine Train
TTITLE5=Southside Denny - Breaks My Heart
TTITLE6=Mean Weenies - Santa Cruz
TTITLE7=Glenn Davis and The Blues Commission - High Cost Of Loving
TTITLE8=Rebirth Blues Band - Never Trust A Man
TTITLE9=Studebaker John and The Hawks - New Way Of Walkin'
TTITLE10=Bangkok Rooster - Rattlesnake Shake
TTITLE11=Mean Weenies - Don't Let Go
TTITLE12=Rebirth Blues Band - Wet Match
TTITLE13=Southside Denny - Food For Thought
TTITLE14=Red Beans and Rice - Someone Like You
TTITLE15=David Morgan - She Caught The Katy
TTITLE16=Yank Rachell - Mandolin Blues
TTITLE17=Glenn Davis and The Blues Commission - Nightlife
EXTD=
EXTT0=
EXTT1=
EXTT2=
EXTT3=
EXTT4=
EXTT5=
EXTT6=
EXTT7=
EXTT8=
EXTT9=
EXTT10=
EXTT11=
EXTT12=
EXTT13=
EXTT14=
EXTT15=
EXTT16=
EXTT17=
PLAYORDER=
